<svg viewBox="0 0 45 75" fill="none" xmlns="http://www.w3.org/2000/svg">
<path d="M12.9117 21.5322H22.0502C24.2731 21.5322 27.2049 21.5322 28.7188 22.4529C30.3791 23.4422 31.6827 25.2423 31.6827 27.7203C31.6827 30.4044 30.2739 32.4198 27.9413 33.3725V33.4458C31.0469 34.0825 32.7392 36.4139 32.7392 39.524C32.7392 43.2341 30.091 46.7701 25.0826 46.7701H12.9117V21.5322ZM16.2597 32.3786H22.9695C26.7795 32.3786 28.3346 30.9999 28.3346 28.3478C28.3346 24.8484 25.8648 24.3537 22.9695 24.3537H16.2597V32.3786ZM16.2597 43.9349H24.6619C27.5525 43.9349 29.3912 42.1668 29.3912 39.414C29.3912 36.1253 26.7429 35.2092 23.9209 35.2092H16.2597V43.9349Z" fill="#F4F4F4"/>
<path d="M41.3147 34.156C41.3147 44.755 32.7342 53.3478 22.1458 53.3478C11.562 53.3478 2.98147 44.755 2.98147 34.156C2.98147 23.557 11.562 14.9642 22.1458 14.9642C32.7342 14.9688 41.3147 23.557 41.3147 34.156ZM22.1458 12.0374C9.95656 12.0374 0.0725098 21.9356 0.0725098 34.1423C0.0725098 46.349 9.95656 56.2472 22.1458 56.2472C34.3396 56.2472 44.2237 46.349 44.2237 34.1423C44.2237 21.9356 34.3396 12.0374 22.1458 12.0374Z" fill="#F4F4F4"/>
<path d="M44.1788 60.9143H0.11908V63.8137H44.1788V60.9143Z" fill="#F4F4F4"/>
<path d="M42.8016 57.7217C42.8565 57.7217 42.9068 57.7171 42.9571 57.7171C43.0028 57.7125 43.0486 57.7034 43.0852 57.6896C43.1263 57.6713 43.1538 57.6438 43.1766 57.6118C43.1995 57.5751 43.2087 57.5293 43.2087 57.4698C43.2087 57.4194 43.1995 57.3736 43.1812 57.3461C43.1629 57.314 43.1355 57.2911 43.1035 57.2774C43.0714 57.2591 43.0394 57.2499 42.9937 57.2407C42.9525 57.2362 42.9159 57.2362 42.8702 57.2362H42.5546V57.7263H42.8016V57.7217ZM42.9068 57.0392C43.0897 57.0392 43.2224 57.0758 43.3139 57.1491C43.4008 57.2224 43.4465 57.3324 43.4465 57.4835C43.4465 57.6255 43.4053 57.7217 43.3322 57.7904C43.2544 57.8545 43.1584 57.8912 43.0394 57.9049L43.4785 58.5828H43.2224L42.8016 57.9186H42.55V58.5828H42.3076V57.0438H42.9068V57.0392ZM41.8228 58.2484C41.8731 58.3858 41.9509 58.5095 42.0515 58.6103C42.1475 58.711 42.2619 58.7889 42.3945 58.8485C42.5226 58.9034 42.669 58.9309 42.8199 58.9309C42.9754 58.9309 43.1172 58.9034 43.2453 58.8485C43.3779 58.7889 43.4922 58.711 43.5883 58.6103C43.6843 58.5095 43.7621 58.3904 43.8124 58.2484C43.8673 58.111 43.8993 57.9644 43.8993 57.8041C43.8993 57.6438 43.8719 57.4972 43.8124 57.3598C43.7575 57.2224 43.6798 57.1033 43.5883 57.0026C43.4877 56.9018 43.3733 56.8239 43.2453 56.769C43.1172 56.714 42.9708 56.6819 42.8199 56.6819C42.669 56.6819 42.5226 56.714 42.3945 56.769C42.2619 56.8285 42.143 56.9064 42.0515 57.0026C41.9509 57.1033 41.8777 57.2224 41.8228 57.3598C41.7679 57.4972 41.7405 57.6392 41.7405 57.8041C41.7405 57.9644 41.7679 58.1156 41.8228 58.2484ZM41.6078 57.282C41.6764 57.1217 41.7725 56.9888 41.8914 56.8697C42.0103 56.7506 42.1521 56.6636 42.3122 56.5949C42.4723 56.5262 42.6461 56.4941 42.8199 56.4941C43.0028 56.4941 43.1721 56.5262 43.3367 56.5949C43.4922 56.6636 43.634 56.7506 43.7484 56.8697C43.8673 56.9888 43.9679 57.1262 44.032 57.282C44.1051 57.4423 44.1372 57.6163 44.1372 57.8041C44.1372 57.9919 44.1051 58.166 44.032 58.3263C43.9633 58.4912 43.8673 58.6286 43.7484 58.7477C43.6295 58.8714 43.4922 58.9584 43.3367 59.0271C43.1721 59.0912 43.0028 59.1233 42.8199 59.1233C42.6415 59.1233 42.4723 59.0912 42.3122 59.0271C42.1521 58.9584 42.0103 58.8714 41.8914 58.7477C41.7725 58.6286 41.6764 58.4912 41.6078 58.3263C41.5346 58.166 41.5072 57.9919 41.5072 57.8041C41.5026 57.6209 41.5301 57.4423 41.6078 57.282Z" fill="#F4F4F4"/>
<path d="M5.45658 2.31767C5.35138 2.1482 5.22331 2.00163 5.0678 1.87796C4.91229 1.7497 4.73391 1.65352 4.53724 1.58023C4.34056 1.51153 4.13474 1.47488 3.91977 1.47488C3.52642 1.47488 3.19253 1.55275 2.91353 1.7039C2.6391 1.85505 2.41498 2.06117 2.24575 2.31767C2.07652 2.57417 1.94845 2.86732 1.8707 3.1971C1.79294 3.52231 1.75178 3.86126 1.75178 4.21395C1.75178 4.54832 1.78837 4.87352 1.8707 5.18957C1.94845 5.50562 2.07194 5.7896 2.24575 6.0461C2.41498 6.29802 2.6391 6.50414 2.91353 6.65529C3.18796 6.80644 3.52185 6.88431 3.91977 6.88431C4.45491 6.88431 4.8757 6.71942 5.173 6.39421C5.47487 6.06442 5.65783 5.63387 5.72643 5.09796H7.42333C7.37759 5.59722 7.26324 6.0461 7.07571 6.44917C6.88819 6.85225 6.64577 7.19578 6.33933 7.47518C6.03288 7.75916 5.67612 7.97444 5.26905 8.12559C4.86198 8.27216 4.40917 8.35003 3.91977 8.35003C3.31145 8.35003 2.76259 8.24468 2.27319 8.0294C1.78379 7.81871 1.37672 7.52556 1.03826 7.14997C0.70437 6.77896 0.448235 6.33924 0.269856 5.8354C0.0914766 5.33614 0 4.79566 0 4.21395C0 3.6185 0.0914766 3.06427 0.269856 2.55127C0.448235 2.04285 0.70437 1.59397 1.03826 1.21838C1.37215 0.838209 1.78379 0.540485 2.27319 0.325207C2.75802 0.109929 3.30688 0 3.91977 0C4.35886 0 4.77508 0.0641253 5.16385 0.187796C5.55263 0.316046 5.90481 0.499261 6.21126 0.742021C6.51771 0.984782 6.77384 1.28251 6.97509 1.63978C7.17634 1.99705 7.30441 2.40928 7.35472 2.86732H5.65783C5.63038 2.67036 5.56178 2.48715 5.45658 2.31767Z" fill="#F4F4F4"/>
<path d="M9.70484 6.78384C9.94268 7.01286 10.2857 7.13195 10.7294 7.13195C11.0495 7.13195 11.324 7.05408 11.5572 6.89377C11.7859 6.73346 11.9277 6.56398 11.9826 6.38535H13.3776C13.1535 7.07699 12.8105 7.57625 12.3485 7.87397C11.8866 8.1717 11.3285 8.32285 10.6745 8.32285C10.2217 8.32285 9.81004 8.24956 9.4487 8.10299C9.0828 7.95642 8.77635 7.7503 8.52022 7.48464C8.26865 7.21898 8.07198 6.89835 7.93477 6.52276C7.79755 6.15175 7.72894 5.73952 7.72894 5.29522C7.72894 4.86466 7.79755 4.46159 7.93934 4.09058C8.08113 3.71957 8.28238 3.39436 8.54308 3.12412C8.80379 2.85388 9.11481 2.6386 9.47615 2.48287C9.83748 2.32713 10.2354 2.24927 10.6745 2.24927C11.1639 2.24927 11.5938 2.34546 11.9597 2.53325C12.3256 2.72563 12.6229 2.97755 12.8562 3.29817C13.0895 3.6188 13.2587 3.98523 13.3639 4.39288C13.4691 4.80054 13.5057 5.23109 13.4737 5.67997H9.31149C9.33893 6.17923 9.467 6.55482 9.70484 6.78384ZM11.4978 3.74247C11.3057 3.53635 11.0175 3.43101 10.6333 3.43101C10.3818 3.43101 10.1714 3.47223 10.0021 3.55926C9.8329 3.64628 9.70026 3.75163 9.59964 3.8753C9.49901 4.00355 9.43041 4.13638 9.38924 4.27838C9.34808 4.42037 9.32521 4.54404 9.31606 4.65855H11.8911C11.8179 4.25547 11.6853 3.95317 11.4978 3.74247Z" fill="#F4F4F4"/>
<path d="M15.6977 2.39108V3.46289H15.7206C15.7938 3.28426 15.8944 3.11936 16.0225 2.96363C16.1505 2.81248 16.2923 2.67965 16.457 2.5743C16.6216 2.46895 16.7954 2.38192 16.983 2.32238C17.1705 2.26283 17.3626 2.23535 17.5638 2.23535C17.669 2.23535 17.7834 2.25367 17.9115 2.29032V3.7652C17.8383 3.75146 17.7468 3.73772 17.6416 3.72856C17.5364 3.71939 17.4358 3.71023 17.3397 3.71023C17.0516 3.71023 16.8046 3.76062 16.6033 3.85681C16.4021 3.95299 16.242 4.08582 16.1185 4.2553C15.995 4.42477 15.9081 4.61715 15.8578 4.84159C15.8075 5.06603 15.7801 5.30879 15.7801 5.56987V8.1761H14.1975V2.39108H15.6977Z" fill="#F4F4F4"/>
<path d="M22.1514 2.3913V3.45394H20.9896V6.31668C20.9896 6.58692 21.0354 6.76556 21.1223 6.85258C21.2092 6.93961 21.3921 6.98542 21.6574 6.98542C21.7489 6.98542 21.8312 6.98083 21.9135 6.97625C21.9959 6.96709 22.0736 6.95793 22.1468 6.94419V8.17173C22.0142 8.19464 21.8632 8.20838 21.6986 8.21754C21.5339 8.2267 21.3738 8.23128 21.2183 8.23128C20.9713 8.23128 20.7381 8.21296 20.5231 8.18089C20.3036 8.14883 20.1115 8.08471 19.9422 7.98394C19.773 7.88775 19.6449 7.75034 19.5443 7.5717C19.4483 7.39307 19.3979 7.15947 19.3979 6.86633V3.45394H18.4374V2.3913H19.3979V0.659912H20.9805V2.3913H22.1514Z" fill="#F4F4F4"/>
<path d="M23.0686 1.49773V0.187744H24.6511V1.49773H23.0686ZM24.6557 2.39091V8.16676H23.0732V2.39091H24.6557Z" fill="#F4F4F4"/>
<path d="M25.2824 3.45355V2.39091H26.2292V1.94203C26.2292 1.42903 26.3893 1.00763 26.7094 0.677845C27.0296 0.348057 27.5144 0.187744 28.1593 0.187744C28.3011 0.187744 28.4429 0.192325 28.5847 0.206066C28.7265 0.215226 28.8637 0.228968 28.9964 0.233548V1.41987C28.8134 1.39696 28.6213 1.3878 28.4201 1.3878C28.2051 1.3878 28.0496 1.43819 27.9581 1.53896C27.8666 1.63972 27.8209 1.8092 27.8209 2.04738V2.39549H28.914V3.45813H27.8209V8.17593H26.2338V3.45355H25.2824Z" fill="#F4F4F4"/>
<path d="M29.9861 1.49773V0.187744H31.5686V1.49773H29.9861ZM31.5686 2.39091V8.16676H29.9861V2.39091H31.5686Z" fill="#F4F4F4"/>
<path d="M34.0699 6.78384C34.3077 7.01286 34.6508 7.13195 35.0944 7.13195C35.4146 7.13195 35.689 7.05408 35.9223 6.89377C36.151 6.73346 36.2928 6.56398 36.3477 6.38535H37.7427C37.5186 7.07699 37.1755 7.57625 36.7181 7.87397C36.2562 8.1717 35.6982 8.32285 35.0441 8.32285C34.5913 8.32285 34.1797 8.24956 33.8183 8.10299C33.4524 7.95642 33.146 7.7503 32.8898 7.48464C32.6383 7.21898 32.4416 6.89835 32.3044 6.52276C32.1672 6.15175 32.0986 5.73952 32.0986 5.29522C32.0986 4.86466 32.1718 4.46159 32.309 4.09058C32.4508 3.71957 32.652 3.39436 32.9127 3.12412C33.1734 2.85388 33.4844 2.6386 33.8458 2.48287C34.2071 2.32713 34.605 2.24927 35.0441 2.24927C35.5335 2.24927 35.9635 2.34546 36.3294 2.53325C36.6953 2.72563 36.9926 2.97755 37.2258 3.29817C37.4591 3.6188 37.6283 3.98523 37.7335 4.39288C37.8387 4.80054 37.8753 5.23109 37.8479 5.67997H33.6857C33.6994 6.17923 33.8321 6.55482 34.0699 6.78384ZM35.8583 3.74247C35.6707 3.53635 35.378 3.43101 34.9938 3.43101C34.7422 3.43101 34.5318 3.47223 34.3626 3.55926C34.1934 3.64628 34.0607 3.75163 33.9601 3.8753C33.8595 4.00355 33.7909 4.13638 33.7497 4.27838C33.7086 4.42037 33.6857 4.54404 33.6765 4.65855H36.2516C36.183 4.25547 36.0504 3.95317 35.8583 3.74247Z" fill="white"/>
<path d="M42.6507 7.42932C42.4632 7.74079 42.2207 7.96981 41.9189 8.10722C41.617 8.24463 41.2785 8.31334 40.8989 8.31334C40.469 8.31334 40.0893 8.23089 39.76 8.06142C39.4307 7.89194 39.1609 7.6675 38.9505 7.37894C38.7401 7.09038 38.58 6.76059 38.4702 6.38958C38.3604 6.01857 38.3101 5.62923 38.3101 5.22616C38.3101 4.83683 38.365 4.46582 38.4702 4.10397C38.5754 3.74212 38.7401 3.42607 38.9505 3.14667C39.1609 2.87185 39.4307 2.64741 39.7463 2.48251C40.0665 2.31304 40.4369 2.23059 40.8623 2.23059C41.2054 2.23059 41.5301 2.30388 41.8365 2.45045C42.1476 2.59702 42.39 2.80772 42.5684 3.0917H42.5912V0.187744H44.1738V8.16676H42.6736V7.42932H42.6507V7.42932ZM42.5821 4.57575C42.5363 4.35589 42.4632 4.16351 42.3534 3.99404C42.2436 3.82457 42.1064 3.69173 41.9326 3.58639C41.7634 3.48104 41.5438 3.43065 41.2877 3.43065C41.0315 3.43065 40.8074 3.48104 40.6291 3.58639C40.4507 3.69173 40.3089 3.82915 40.1991 3.99862C40.0939 4.16809 40.0162 4.36505 39.9658 4.58491C39.9155 4.80477 39.8927 5.03379 39.8927 5.27197C39.8927 5.4964 39.9201 5.72084 39.9704 5.9407C40.0207 6.16514 40.1076 6.3621 40.222 6.54073C40.3363 6.71478 40.4827 6.85678 40.6565 6.96671C40.8303 7.07663 41.0407 7.12702 41.2877 7.12702C41.5484 7.12702 41.7634 7.07663 41.9417 6.97129C42.1155 6.86594 42.2573 6.72853 42.3625 6.54989C42.4677 6.37584 42.5409 6.1743 42.5867 5.95444C42.6324 5.73 42.6553 5.50098 42.6553 5.2628C42.6553 5.02462 42.6278 4.79561 42.5821 4.57575Z" fill="white"/>
<path d="M3.98381 69.5116C3.90605 68.9528 3.37091 68.5268 2.75802 68.5268C1.65115 68.5268 1.23493 69.4704 1.23493 70.4552C1.23493 71.3895 1.65115 72.3331 2.75802 72.3331C3.5127 72.3331 3.93807 71.8155 4.02954 71.0735H5.22789C5.09982 72.4751 4.13474 73.3728 2.75802 73.3728C1.01996 73.3728 0 72.072 0 70.4552C0 68.7879 1.01996 67.4871 2.75802 67.4871C3.99295 67.4871 5.02664 68.2108 5.17758 69.5116H3.98381Z" fill="white"/>
<path d="M7.80233 69.0625C9.083 69.0625 9.90629 69.9099 9.90629 71.2107C9.90629 72.5024 9.083 73.3497 7.80233 73.3497C6.5308 73.3497 5.70294 72.4978 5.70294 71.2107C5.70294 69.9099 6.52623 69.0625 7.80233 69.0625ZM7.80233 72.5069C8.56616 72.5069 8.79028 71.8519 8.79028 71.2107C8.79028 70.5557 8.56159 69.9053 7.80233 69.9053C7.04765 69.9053 6.81896 70.5603 6.81896 71.2107C6.81896 71.8565 7.04765 72.5069 7.80233 72.5069Z" fill="white"/>
<path d="M10.5975 69.1634H11.6586V69.9192H11.6769C11.8781 69.4062 12.4316 69.0535 12.9759 69.0535C13.0536 69.0535 13.1497 69.0672 13.2183 69.0901V70.1299C13.1131 70.107 12.9484 70.0932 12.8158 70.0932C11.9971 70.0932 11.7135 70.6841 11.7135 71.3986V73.2308H10.5975V69.1634Z" fill="white"/>
<path d="M13.6487 69.1724H14.7098V69.69H14.7235C14.9888 69.2595 15.4279 69.0625 15.931 69.0625C17.2071 69.0625 17.7788 70.0931 17.7788 71.2473C17.7788 72.3329 17.1842 73.3497 15.9951 73.3497C15.5102 73.3497 15.0437 73.139 14.7784 72.736H14.7601V74.6735H13.6441V69.1724H13.6487ZM16.6674 71.2199C16.6674 70.574 16.4067 69.9053 15.6932 69.9053C14.9614 69.9053 14.7281 70.5603 14.7281 71.2199C14.7281 71.8794 14.9797 72.5115 15.7023 72.5115C16.4296 72.5069 16.6674 71.8794 16.6674 71.2199Z" fill="white"/>
<path d="M20.2304 69.0625C21.5111 69.0625 22.339 69.9099 22.339 71.2107C22.339 72.5024 21.5111 73.3497 20.2304 73.3497C18.9589 73.3497 18.1356 72.4978 18.1356 71.2107C18.1356 69.9099 18.9589 69.0625 20.2304 69.0625ZM20.2304 72.5069C20.9943 72.5069 21.223 71.8519 21.223 71.2107C21.223 70.5557 20.9943 69.9053 20.2304 69.9053C19.4758 69.9053 19.2471 70.5603 19.2471 71.2107C19.2471 71.8565 19.4758 72.5069 20.2304 72.5069Z" fill="white"/>
<path d="M23.0241 69.1634H24.0852V69.9192H24.1035C24.3048 69.4062 24.8582 69.0535 25.3979 69.0535C25.4757 69.0535 25.5717 69.0672 25.6403 69.0901V70.1299C25.5397 70.107 25.3751 70.0932 25.2378 70.0932C24.4191 70.0932 24.1355 70.6841 24.1355 71.3986V73.2308H23.0195V69.1634H23.0241Z" fill="white"/>
<path d="M25.97 70.4229C26.034 69.374 26.9671 69.0625 27.8819 69.0625C28.6914 69.0625 29.6656 69.2411 29.6656 70.2168V72.3329C29.6656 72.7039 29.7022 73.0703 29.8074 73.2398H28.6731C28.6365 73.1115 28.5999 72.9787 28.5954 72.8459C28.2432 73.2169 27.7263 73.3497 27.2278 73.3497C26.4594 73.3497 25.8465 72.965 25.8465 72.1313C25.8465 71.2107 26.5371 70.9908 27.2278 70.8946C27.9139 70.7939 28.5496 70.8168 28.5496 70.3587C28.5496 69.8778 28.2157 69.8091 27.827 69.8091C27.4016 69.8091 27.1272 69.9832 27.086 70.4229H25.97V70.4229ZM28.5496 71.2473C28.3575 71.4122 27.9688 71.4214 27.6211 71.4855C27.2735 71.5542 26.9625 71.6733 26.9625 72.0855C26.9625 72.5024 27.2827 72.6031 27.6486 72.6031C28.5176 72.6031 28.5542 71.9115 28.5542 71.6687V71.2473H28.5496Z" fill="white"/>
<path d="M31.9209 69.1728H32.7396V69.9194H31.9209V71.9348C31.9209 72.3149 32.0169 72.4065 32.392 72.4065C32.5109 72.4065 32.6207 72.3974 32.7396 72.3745V73.2493C32.5521 73.2814 32.3051 73.2905 32.0855 73.2905C31.404 73.2905 30.8049 73.1302 30.8049 72.3241V69.924H30.1279V69.1774H30.8049V67.959H31.9209V69.1728Z" fill="white"/>
<path d="M34.6926 68.5452H33.5766V67.6245H34.6926V68.5452ZM33.5766 69.1727H34.6926V73.2401H33.5766V69.1727Z" fill="#F4F4F4"/>
<path d="M37.5418 69.0625C38.8225 69.0625 39.6503 69.9099 39.6503 71.2107C39.6503 72.5024 38.8225 73.3497 37.5418 73.3497C36.2703 73.3497 35.447 72.4978 35.447 71.2107C35.4424 69.9099 36.2703 69.0625 37.5418 69.0625ZM37.5418 72.5069C38.3056 72.5069 38.5343 71.8519 38.5343 71.2107C38.5343 70.5557 38.3056 69.9053 37.5418 69.9053C36.7871 69.9053 36.5584 70.5603 36.5584 71.2107C36.5584 71.8565 36.7871 72.5069 37.5418 72.5069Z" fill="#F4F4F4"/>
<path d="M40.3682 69.1724H41.4294V69.7404H41.4522C41.7358 69.2824 42.2206 69.0625 42.6963 69.0625C43.8809 69.0625 44.1828 69.7312 44.1828 70.7389V73.2398H43.0668V70.9405C43.0668 70.2717 42.8701 69.9419 42.3533 69.9419C41.7449 69.9419 41.4888 70.2809 41.4888 71.1099V73.2444H40.3728V69.1724H40.3682Z" fill="#F4F4F4"/>
</svg>
