<svg xmlns="http://www.w3.org/2000/svg" width="16" height="14.185" viewBox="0 0 16 14.185">
  <g id="heart-svgrepo-com" transform="translate(0 -28.501)">
    <path id="Path_4" data-name="Path 4" d="M14.708,29.818a4.4,4.4,0,0,0-6.265,0l-.438.441-.444-.448A4.4,4.4,0,0,0,1.3,29.808,4.49,4.49,0,0,0,1.3,36.125l6.37,6.424a.452.452,0,0,0,.644,0L14.7,36.139a4.5,4.5,0,0,0,.007-6.321Zm-.651,5.668L8,41.574l-6.048-6.1a3.564,3.564,0,0,1,0-5.011,3.492,3.492,0,0,1,4.969,0l.767.773a.454.454,0,0,0,.648,0l.76-.766a3.492,3.492,0,0,1,4.969,0,3.572,3.572,0,0,1,0,5.014Z" transform="translate(0 0)" fill="#707070"/>
  </g>
</svg>
