<svg xmlns="http://www.w3.org/2000/svg" width="15.443" height="13.912" viewBox="0 0 15.443 13.912">
  <g id="Path_1" data-name="Path 1" transform="translate(-377.922 -242.32)" fill="none" stroke-linecap="round">
    <path d="M385.7,244.114s2.287-2.6,5.219-1.213,2.928,4.5,1.554,6.951-6.773,6.38-6.773,6.38-4.749-3-6.517-5.69-1.883-5.822.975-7.641S385.7,244.114,385.7,244.114Z" stroke="none"/>
    <path d="M 382.0790710449219 244.3196563720703 C 381.7896728515625 244.3196563720703 381.5209045410156 244.4049377441406 381.2332458496094 244.5880432128906 C 380.529296875 245.0361175537109 380.1187438964844 245.5729522705078 379.9781494140625 246.2291870117188 C 379.7850952148438 247.1301879882812 380.1048889160156 248.3014678955078 380.8555297851562 249.4426879882812 C 381.81982421875 250.9087829589844 384.0868225097656 252.6849975585938 385.6341247558594 253.7760772705078 C 387.5673828125 252.2682495117188 390.0297546386719 250.1205902099609 390.7304382324219 248.8726654052734 C 391.3132629394531 247.8347320556641 391.5107421875 246.7431182861328 391.2586975097656 245.95263671875 C 391.0870971679688 245.4143981933594 390.6966552734375 245.0075378417969 390.0651550292969 244.7088012695312 C 389.7587890625 244.5638885498047 389.4657287597656 244.4934692382812 389.1692810058594 244.4934997558594 C 388.2801818847656 244.4935913085938 387.4558715820312 245.1665344238281 387.1983032226562 245.4402008056641 L 385.7372741699219 247.2276763916016 L 384.2078247070312 245.4439544677734 C 383.9308166503906 245.1445159912109 382.9703979492188 244.3196563720703 382.0790710449219 244.3196563720703 M 382.0790710449219 242.3196563720703 C 384.1130676269531 242.3196563720703 385.7012939453125 244.1135559082031 385.7012939453125 244.1135559082031 C 385.7012939453125 244.1135559082031 387.9881591796875 241.5139465332031 390.9202880859375 242.9008483886719 C 393.8523559570312 244.2878112792969 393.8485717773438 247.4045104980469 392.4743041992188 249.8518981933594 C 391.1001586914062 252.2992858886719 385.7012939453125 256.2317810058594 385.7012939453125 256.2317810058594 C 385.7012939453125 256.2317810058594 380.9525756835938 253.229736328125 379.1845703125 250.541748046875 C 377.4165649414062 247.8537902832031 377.3016967773438 244.7197875976562 380.1593017578125 242.9008483886719 C 380.818603515625 242.4811859130859 381.4690551757812 242.3196563720703 382.0790710449219 242.3196563720703 Z" stroke="none" fill="#000"/>
  </g>
</svg>
