<?xml version="1.0" encoding="UTF-8"?>
<svg width="600px" height="350px" viewBox="0 0 600 350" version="1.1" xmlns="http://www.w3.org/2000/svg" xmlns:xlink="http://www.w3.org/1999/xlink">
    <!-- Generator: Sketch 47.1 (45422) - http://www.bohemiancoding.com/sketch -->
    <title>ideal</title>
    <desc>Created with Sketch.</desc>
    <defs></defs>
    <g id="Page-1" stroke="none" stroke-width="1" fill="none" fill-rule="evenodd">
        <g id="ideal">
            <path d="M175,67 L304.3405,67 C392.127667,67 425.776667,114.867793 425.776667,175.251793 C425.776667,247.658241 378.787667,283.98969 304.3405,283.98969 L175,283.98969 L175,67 Z M187.538833,79.5200345 L187.538833,271.47731 L304.3405,271.47731 C374.8585,271.47731 413.226333,238.667241 413.226333,175.251793 C413.226333,110.079483 371.634667,79.5162069 304.3405,79.5162069 L187.538833,79.5162069 L187.538833,79.5200345 Z" id="o100" fill="#000000" fill-rule="nonzero"></path>
            <path d="M203,189 L240.390333,189 L240.390333,255.446897 L203,255.446897 L203,189 Z M222.237667,178.405655 C209.403858,178.405655 199,168.017395 199,155.202828 C199,142.38826 209.403858,132 222.237667,132 C235.071476,132 245.475333,142.38826 245.475333,155.202828 C245.475333,168.017395 235.071476,178.405655 222.237667,178.405655 Z" id="o100" fill="#000000"></path>
            <path d="M318.589167,166.556724 L318.589167,177.316069 L291.9475,177.316069 L291.9475,134.140897 L297.3295,134.140897 L317.738167,134.140897 L317.738167,144.896414 C317.738167,144.896414 308.5535,144.896414 302.719167,144.896414 C302.719167,146.37769 302.719167,148.077138 302.719167,149.895241 L316.921667,149.895241 L316.921667,160.654586 L302.719167,160.654586 C302.719167,162.80569 302.719167,164.841966 302.719167,166.560552 C308.726,166.556724 318.589167,166.556724 318.589167,166.556724 Z M323.2505,177.323724 L336.287667,134.125586 L351.613333,134.125586 L364.646667,177.323724 L353.434167,177.323724 L350.9885,168.968103 L336.897167,168.968103 L334.447667,177.323724 L323.2505,177.323724 Z M340.055833,158.220241 L347.852833,158.220241 L344.276333,146.017897 L343.624667,146.017897 L340.055833,158.220241 Z M370.063167,134.129414 L380.8425,134.129414 C380.8425,134.129414 380.8425,158.641276 380.8425,166.560552 C383.223,166.560552 389.774167,166.560552 396.796833,166.560552 C392.419167,107.715241 346.0665,95 303.922833,95 L259.007667,95 L259.007667,134.152379 L265.654667,134.152379 C277.775667,134.152379 285.3005,142.358724 285.3005,155.563897 C285.3005,169.190103 277.955833,177.323724 265.654667,177.323724 L259.007667,177.323724 L259.007667,255.659103 L303.926667,255.659103 C372.413,255.659103 396.264,223.897793 397.107333,177.316069 L370.063167,177.316069 L370.063167,134.129414 L370.063167,134.129414 Z M259,144.907897 C259,150.901897 259,160.566552 259,166.560552 C262.289,166.560552 265.654667,166.560552 265.654667,166.560552 C270.266167,166.560552 274.528833,165.228552 274.528833,155.560069 C274.528833,146.117414 269.787,144.907897 265.654667,144.907897 C265.654667,144.907897 262.292833,144.907897 259,144.907897 Z" id="o50" fill="#CC1866" fill-rule="nonzero"></path>
        </g>
    </g>
</svg>