<svg xmlns="http://www.w3.org/2000/svg" width="74.442" height="74.323" viewBox="0 0 74.442 74.323">
  <g id="Group_7" data-name="Group 7" transform="translate(0 -0.001)">
    <circle id="Ellipse_15" data-name="Ellipse 15" cx="37" cy="37" r="37" transform="translate(0.122 0.009)" fill="#c2b26c"/>
    <path id="Subtraction_1" data-name="Subtraction 1" d="M40.2,74.323h0L29.952,64.173V49.825L49.033,35.066V22.5H29.953V.709A37.509,37.509,0,0,1,37.222,0,36.923,36.923,0,0,1,52.7,3.363V15.555l8.085,12.76h12.58a37.427,37.427,0,0,1-1.38,22.22l-6.6-7.516-5.5,23.724A37.017,37.017,0,0,1,40.2,74.323ZM.822,45.035v0A37.464,37.464,0,0,1,0,37.22a37.073,37.073,0,0,1,6.018-20.3l2,2.795L9.48,35.066.824,45.033Z" transform="translate(0 0.001)" fill="#2a1c1e"/>
  </g>
</svg>
