<?xml version="1.0" encoding="UTF-8"?>
<svg width="600px" height="350px" viewBox="0 0 600 350" version="1.1" xmlns="http://www.w3.org/2000/svg" xmlns:xlink="http://www.w3.org/1999/xlink">
    <!-- Generator: Sketch 47.1 (45422) - http://www.bohemiancoding.com/sketch -->
    <title>mastercard</title>
    <desc>Created with Sketch.</desc>
    <defs></defs>
    <g id="Page-1" stroke="none" stroke-width="1" fill="none" fill-rule="evenodd">
        <g id="mastercard">
            <path d="M479.808436,278.495205 L479.808436,277.750263 L480.495517,277.750263 C480.647398,277.750263 480.777582,277.786426 480.871604,277.844285 C480.958393,277.902145 481.00902,278.003399 481.00902,278.12635 C481.00902,278.249302 480.958393,278.343323 480.871604,278.401183 C480.777582,278.466275 480.647398,278.495205 480.495517,278.495205 L479.808436,278.495205 Z M480.50275,279.01594 C480.857139,279.01594 481.131972,278.936383 481.327248,278.77727 C481.522524,278.618156 481.616545,278.401183 481.616545,278.12635 C481.616545,277.894912 481.544221,277.706869 481.385107,277.554988 C481.233226,277.410339 481.016253,277.316317 480.726955,277.280155 L481.638243,276.231451 L480.929464,276.231451 L480.083268,277.272922 L479.808436,277.272922 L479.808436,276.231451 L479.215376,276.231451 L479.215376,279.01594 L480.50275,279.01594 Z M480.321939,275.269537 C480.647398,275.269537 480.951161,275.334629 481.225994,275.45758 C481.508059,275.580532 481.753962,275.746878 481.963702,275.956619 C482.173443,276.166359 482.339789,276.412262 482.462741,276.70156 C482.57846,276.983625 482.643552,277.287387 482.643552,277.612847 C482.643552,277.938307 482.57846,278.242069 482.462741,278.524134 C482.339789,278.806199 482.173443,279.059335 481.963702,279.269076 C481.753962,279.478816 481.508059,279.645162 481.225994,279.768114 C480.951161,279.883833 480.647398,279.941692 480.321939,279.941692 C479.996479,279.941692 479.685484,279.883833 479.403419,279.768114 C479.114121,279.645162 478.860986,279.478816 478.651245,279.269076 C478.441505,279.059335 478.275159,278.806199 478.15944,278.524134 C478.036488,278.242069 477.978629,277.938307 477.978629,277.612847 C477.978629,277.287387 478.036488,276.983625 478.15944,276.70156 C478.275159,276.412262 478.441505,276.166359 478.651245,275.956619 C478.860986,275.746878 479.114121,275.580532 479.403419,275.45758 C479.685484,275.334629 479.996479,275.269537 480.321939,275.269537 L480.321939,275.269537 Z M480.321939,280.614309 C480.748653,280.614309 481.139204,280.534752 481.515291,280.375639 C481.884145,280.223757 482.202373,280.006784 482.484438,279.731952 C482.759271,279.464351 482.976244,279.146124 483.135357,278.77727 C483.294471,278.415648 483.374028,278.025096 483.374028,277.612847 C483.374028,277.200598 483.294471,276.810046 483.135357,276.448424 C482.976244,276.086803 482.759271,275.768575 482.484438,275.493743 C482.202373,275.226142 481.884145,275.009169 481.515291,274.850056 C481.139204,274.690942 480.748653,274.611385 480.321939,274.611385 C479.887992,274.611385 479.490208,274.690942 479.114121,274.850056 C478.738035,275.009169 478.412575,275.226142 478.137742,275.493743 C477.86291,275.768575 477.645936,276.086803 477.486823,276.448424 C477.327709,276.810046 477.248152,277.200598 477.248152,277.612847 C477.248152,278.025096 477.327709,278.415648 477.486823,278.77727 C477.645936,279.146124 477.86291,279.464351 478.137742,279.731952 C478.412575,280.006784 478.738035,280.223757 479.114121,280.375639 C479.490208,280.534752 479.887992,280.614309 480.321939,280.614309 L480.321939,280.614309 Z M198.538896,291.340016 C198.538896,296.648626 202.017699,301.009786 207.702396,301.009786 C213.133958,301.009786 216.800804,296.836669 216.800804,291.340016 C216.800804,285.843362 213.133958,281.670245 207.702396,281.670245 C202.017699,281.670245 198.538896,286.031406 198.538896,291.340016 L198.538896,291.340016 Z M222.991772,291.340016 L222.991772,306.441348 L216.424717,306.441348 L216.424717,302.774501 C214.341775,305.493898 211.181199,307.200754 206.885131,307.200754 C198.415945,307.200754 191.776566,300.561375 191.776566,291.340016 C191.776566,282.111424 198.415945,275.479278 206.885131,275.479278 C211.181199,275.479278 214.341775,277.186133 216.424717,279.90553 L216.424717,276.238684 L222.991772,276.238684 L222.991772,291.340016 Z M444.911919,291.340016 C444.911919,296.648626 448.390722,301.009786 454.075419,301.009786 C459.514213,301.009786 463.173827,296.836669 463.173827,291.340016 C463.173827,285.843362 459.514213,281.670245 454.075419,281.670245 C448.390722,281.670245 444.911919,286.031406 444.911919,291.340016 L444.911919,291.340016 Z M469.372027,291.340016 L469.372027,318.570147 L462.79774,318.570147 L462.79774,302.774501 C460.714798,305.493898 457.554222,307.200754 453.258153,307.200754 C444.788968,307.200754 438.149589,300.561375 438.149589,291.340016 C438.149589,282.111424 444.788968,275.479278 453.258153,275.479278 C457.554222,275.479278 460.714798,277.186133 462.79774,279.90553 L462.79774,276.238684 L469.372027,276.238684 L469.372027,291.340016 Z M304.508588,301.320781 C308.739564,301.320781 311.458961,298.666476 312.153275,293.994321 L296.480581,293.994321 C297.182127,298.355481 299.8292,301.320781 304.508588,301.320781 L304.508588,301.320781 Z M304.638771,307.200754 C295.786267,307.200754 289.595299,300.756651 289.595299,291.340016 C289.595299,281.735337 296.039402,275.479278 305.07995,275.479278 C309.629154,275.479278 313.795039,276.614771 317.461885,279.710254 L314.24345,284.577686 C311.712096,282.559835 308.486429,281.41711 305.456037,281.41711 C301.22506,281.41711 297.370171,283.377101 296.422721,288.815895 L318.850513,288.815895 C318.915605,289.63316 318.980697,290.457658 318.980697,291.340016 C318.915605,300.756651 313.100725,307.200754 304.638771,307.200754 L304.638771,307.200754 Z M383.935229,291.340016 C383.935229,296.648626 387.414032,301.009786 393.098729,301.009786 C398.53029,301.009786 402.197136,296.836669 402.197136,291.340016 C402.197136,285.843362 398.53029,281.670245 393.098729,281.670245 C387.414032,281.670245 383.935229,286.031406 383.935229,291.340016 L383.935229,291.340016 Z M408.388104,291.340016 L408.388104,306.441348 L401.82105,306.441348 L401.82105,302.774501 C399.730875,305.493898 396.577532,307.200754 392.281463,307.200754 C383.812277,307.200754 377.172899,300.561375 377.172899,291.340016 C377.172899,282.111424 383.812277,275.479278 392.281463,275.479278 C396.577532,275.479278 399.730875,277.186133 401.82105,279.90553 L401.82105,276.238684 L408.388104,276.238684 L408.388104,291.340016 Z M346.847283,291.340016 C346.847283,282.176516 353.226294,275.479278 362.961157,275.479278 C367.510361,275.479278 370.540752,276.491819 373.82428,279.081032 L370.670936,284.389642 C368.204675,282.617695 365.615462,281.670245 362.765881,281.670245 C357.522363,281.735337 353.667473,285.525135 353.667473,291.340016 C353.667473,297.154896 357.522363,300.944694 362.765881,301.009786 C365.615462,301.009786 368.204675,300.062337 370.670936,298.290389 L373.82428,303.598999 C370.540752,306.188212 367.510361,307.200754 362.961157,307.200754 C353.226294,307.200754 346.847283,300.503515 346.847283,291.340016 L346.847283,291.340016 Z M431.517443,307.200754 C427.727645,307.200754 425.261383,305.428806 423.554528,302.774501 L423.554528,306.441348 L417.045333,306.441348 L417.045333,276.238684 L423.61962,276.238684 L423.61962,293.169823 C423.61962,298.167438 425.767654,300.944694 430.063723,300.944694 C431.394491,300.944694 432.783119,300.756651 434.171748,300.185288 L436.196831,306.376256 C434.74311,306.947618 432.848211,307.200754 431.517443,307.200754 L431.517443,307.200754 Z M255.472654,304.040178 C252.312078,306.12312 247.95815,307.200754 243.155811,307.200754 C235.50389,307.200754 230.5786,303.533907 230.5786,297.530983 C230.5786,292.605692 234.245446,289.568068 241.000544,288.620619 L244.10326,288.17944 C247.705014,287.673169 249.404638,286.72572 249.404638,285.018864 C249.404638,282.682787 247.003468,281.352018 242.519356,281.352018 C237.970152,281.352018 234.686625,282.805738 232.473499,284.512594 L229.378015,279.399259 C232.979769,276.744954 237.528973,275.479278 242.454264,275.479278 C251.176585,275.479278 256.23206,279.587303 256.23206,285.337092 C256.23206,290.645702 252.254218,293.422958 245.679932,294.370407 L242.584448,294.818819 C239.742099,295.194905 237.463881,295.759036 237.463881,297.784118 C237.463881,299.997245 239.611916,301.320781 243.21367,301.320781 C247.06856,301.320781 250.800498,299.867061 252.630305,298.731568 L255.472654,304.040178 Z M340.207905,307.200754 C336.418107,307.200754 333.951845,305.428806 332.252222,302.774501 L332.252222,306.441348 L325.743027,306.441348 L325.743027,276.238684 L332.310082,276.238684 L332.310082,293.169823 C332.310082,298.167438 334.458116,300.944694 338.754185,300.944694 C340.084953,300.944694 341.473582,300.756651 342.86221,300.185288 L344.887293,306.376256 C343.433572,306.947618 341.538673,307.200754 340.207905,307.200754 L340.207905,307.200754 Z M284.163738,306.441348 L273.423566,306.441348 L273.423566,315.604847 L266.784188,315.604847 L266.784188,306.441348 L260.658312,306.441348 L260.658312,300.438423 L266.784188,300.438423 L266.784188,286.660628 C266.784188,279.652395 269.503585,275.479278 277.271224,275.479278 C280.120804,275.479278 283.404332,276.361635 285.487274,277.815355 L283.592375,283.442193 C281.632384,282.3067 279.48435,281.735337 277.777494,281.735337 C274.493967,281.735337 273.423566,283.76042 273.423566,286.790812 L273.423566,300.438423 L284.163738,300.438423 L284.163738,306.441348 Z M185.968918,276.238684 L185.968918,295.194905 C185.968918,302.333322 181.419714,307.135662 174.086021,307.200754 C170.231132,307.265846 166.25329,306.065261 163.468801,301.827052 C161.385859,305.175671 158.102332,307.200754 153.488036,307.200754 C150.262368,307.200754 147.109025,306.253304 144.642764,302.716642 L144.642764,306.441348 L138.068477,306.441348 L138.068477,276.238684 L144.700623,276.238684 L144.700623,292.981779 C144.700623,298.225297 147.608063,301.009786 152.099408,301.009786 C156.460568,301.009786 158.666462,298.167438 158.666462,293.046871 L158.666462,276.238684 L165.305841,276.238684 L165.305841,292.981779 C165.305841,298.225297 168.336233,301.009786 172.697393,301.009786 C177.181505,301.009786 179.329539,298.167438 179.329539,293.046871 L179.329539,276.238684 L185.968918,276.238684 Z" id="o100" fill="#231F20" fill-rule="nonzero" transform="translate(310.721252, 296.590766) scale(-1, 1) rotate(-180.000000) translate(-310.721252, -296.590766) "></path>
            <path d="M259.942301,146.025858 C259.942301,182.311003 276.931299,214.632771 303.38756,235.462195 C284.040786,250.69371 259.624073,259.784886 233.088256,259.784886 C170.267294,259.784886 119.343693,208.854053 119.343693,146.025858 C119.343693,83.1976637 170.267294,32.2668308 233.088256,32.2668308 C259.624073,32.2668308 284.040786,41.3580061 303.38756,56.5895219 C276.931299,77.4189452 259.942301,109.740714 259.942301,146.025858" id="o70" fill="#EB001B" fill-rule="nonzero" transform="translate(211.365626, 146.025858) scale(-1, 1) rotate(-180.000000) translate(-211.365626, -146.025858) "></path>
            <path d="M487.330172,146.025858 C487.330172,83.1976637 436.406571,32.2668308 373.585609,32.2668308 C347.049792,32.2668308 322.633079,41.3580061 303.279073,56.5895219 C329.742566,77.4189452 346.731564,109.740714 346.731564,146.025858 C346.731564,182.311003 329.742566,214.632771 303.279073,235.462195 C322.633079,250.69371 347.049792,259.784886 373.585609,259.784886 C436.406571,259.784886 487.330172,208.854053 487.330172,146.025858" id="o30" fill="#F79E1B" fill-rule="nonzero" transform="translate(395.304622, 146.025858) scale(-1, 1) rotate(-180.000000) translate(-395.304622, -146.025858) "></path>
            <path d="M303.260002,56 C329.75848,76.9514573 346.762257,109.383435 346.762257,145.786858 C346.762257,182.190281 329.75848,214.622259 303.260002,235.573716 C276.761524,214.622259 259.757747,182.190281 259.757747,145.786858 C259.757747,109.383435 276.761524,76.9514573 303.260002,56 Z" id="o50" fill="#FF5F00"></path>
        </g>
    </g>
</svg>