<?xml version="1.0" encoding="UTF-8"?>
<svg width="600px" height="350px" viewBox="0 0 600 350" version="1.1" xmlns="http://www.w3.org/2000/svg" xmlns:xlink="http://www.w3.org/1999/xlink">
    <!-- Generator: Sketch 47.1 (45422) - http://www.bohemiancoding.com/sketch -->
    <title>paypal</title>
    <desc>Created with Sketch.</desc>
    <defs></defs>
    <g id="Page-1" stroke="none" stroke-width="1" fill="none" fill-rule="evenodd">
        <g id="paypal" fill-rule="nonzero">
            <path d="M104.92565,97.3042448 C114.443748,97.3042448 122.493436,100.797389 129.074713,107.783678 C135.655991,114.769967 137.630503,124.439702 134.998252,136.792881 C132.568182,148.741049 127.049979,158.106862 118.443643,164.890322 C109.837308,171.673781 99.6614709,175.065834 87.9161329,175.066483 L63.9187063,175.066483 L55.4134615,213.644329 L22,213.644329 L47.5157343,97.3042448 L104.926622,97.3042448 L104.92565,97.3042448 Z M146.844357,126.768357 C147.85721,126.565527 150.034228,126.0591 153.375413,125.249077 C156.716597,124.439054 159.501133,123.780991 161.729021,123.274888 C163.956909,122.768786 166.893406,122.262359 170.53851,121.755608 C174.183615,121.248858 177.727629,120.995807 181.170552,120.996455 C186.840716,120.793625 192.156413,121.198636 197.117643,122.21149 C202.078874,123.224343 206.635417,124.844389 210.787273,127.071629 C214.939128,129.298869 217.875625,132.640378 219.596762,137.096154 C221.3179,141.55193 221.46986,146.817082 220.052643,152.891608 L207.294776,213.643357 L176.614657,213.643357 L178.741455,204.530594 C174.488508,208.783541 169.121942,211.821128 162.641755,213.643357 C156.161569,215.465585 150.035848,215.921142 144.264594,215.010028 C138.49334,214.098914 133.886252,210.909366 130.443329,205.441385 C127.000406,199.973403 126.088967,192.784284 127.709014,183.874028 C129.936902,173.343725 136.265128,165.800464 146.693692,161.244245 C157.122256,156.688026 171.34821,154.409916 189.371552,154.409916 C189.979394,151.372005 189.675473,148.941935 188.45979,147.119706 C187.244107,145.297478 185.421555,144.031897 182.992133,143.322965 C180.562711,142.614033 177.322618,142.360981 173.271853,142.563811 C168.006702,142.766641 162.336538,143.576664 156.261364,144.993881 C150.186189,146.411098 146.136072,147.727548 144.111014,148.943231 L146.844357,126.768357 Z M84.2700559,152.891608 C87.1051375,152.891608 89.8896737,152.182676 92.6236643,150.764811 C95.357655,149.346946 97.686634,147.422979 99.6106014,144.992909 C101.534569,142.562839 102.800149,139.828848 103.407343,136.790937 C104.622378,132.335809 104.115951,128.589289 101.888063,125.551378 C99.6601748,122.513466 96.4200816,120.99451 92.1677832,120.99451 L76.0680839,120.99451 L68.7778741,152.889664 L84.2700559,152.889664 L84.2700559,152.891608 Z M234.022629,122.819979 L246.477224,214.251846 L223.999077,252.525448 L258.324301,252.525448 L331.226399,122.819979 L299.63549,122.819979 L269.259615,176.889035 L264.399476,122.819979 L234.023601,122.819979 L234.022629,122.819979 Z M183.598678,183.267483 C183.598678,181.242424 184.105105,178.508434 185.117958,175.06551 L177.220231,175.06551 C167.702133,175.06551 161.626958,177.596995 158.994706,182.659965 C156.969648,186.30507 156.919103,189.342657 158.84307,191.772727 C160.767037,194.202797 163.551573,195.417832 167.196678,195.417832 C176.106935,195.012821 181.574592,190.962704 183.59965,183.267483 L183.598678,183.267483 Z" id="o100" fill="#15447B"></path>
            <path d="M545.997476,97 L577.285112,97 L551.465133,213.643357 L520.481741,213.643357 L545.997476,97 Z M402.62335,97.3042448 C412.141448,97.3042448 420.241681,100.797389 426.924049,107.783678 C433.606417,114.769967 435.631476,124.439702 432.999224,136.792881 C431.379177,144.690932 428.291044,151.576131 423.734825,157.448476 C419.178606,163.320821 413.609534,167.725403 407.027608,170.662224 C400.445683,173.599044 393.206019,175.067131 385.308615,175.066483 L361.615434,175.066483 L353.413462,213.644329 L320,213.644329 L345.515734,97.3042448 L402.622378,97.3042448 L402.62335,97.3042448 Z M445.149573,126.768357 C446.364608,126.565527 448.136615,126.160515 450.465594,125.553322 C452.794573,124.946128 454.971592,124.389156 456.99665,123.882406 C459.021709,123.375655 461.299818,122.920098 463.830979,122.515734 C466.36214,122.111371 468.994716,121.756904 471.728706,121.452336 C474.462697,121.147767 477.247233,120.995807 480.082315,120.996455 C485.955308,120.793625 491.37242,121.198636 496.33365,122.21149 C501.294881,123.224343 505.851424,124.844389 510.00328,127.071629 C514.155135,129.298869 517.142177,132.640378 518.964406,137.096154 C520.786634,141.55193 520.98914,146.817082 519.571923,152.891608 L506.509811,213.643357 L475.52642,213.643357 L477.653217,204.530594 C473.40027,208.783541 467.983159,211.821128 461.401881,213.643357 C454.820604,215.465585 448.593469,215.921142 442.720476,215.010028 C436.847483,214.098914 432.189848,210.909366 428.747573,205.441385 C425.305298,199.973403 424.39386,192.784284 426.013259,183.874028 C427.431124,176.583818 430.975138,170.761695 436.645301,166.407657 C442.315464,162.05362 449.302077,158.965487 457.60514,157.143259 C465.908203,155.32103 476.134909,154.409592 488.285259,154.408944 C489.298112,149.750986 488.437543,146.561438 485.703552,144.840301 C482.969562,143.119163 478.463888,142.359685 472.186531,142.561867 C468.541427,142.561867 464.592401,142.966879 460.339455,143.776902 C456.086508,144.586925 452.390858,145.447494 449.252503,146.358608 C446.114149,147.269723 443.734625,148.130291 442.11393,148.940315 L445.149573,126.768357 Z M382.271028,152.891608 C386.523974,152.891608 390.574091,151.322107 394.421378,148.183105 C398.268664,145.044103 400.698734,141.247037 401.711587,136.791909 C402.724441,132.336781 402.066378,128.590261 399.737399,125.55235 C397.40842,122.514438 394.218872,120.995483 390.168755,120.995483 L373.158266,120.995483 L366.475573,152.890636 L382.271028,152.890636 L382.271028,152.891608 Z M482.20814,183.267483 C482.613152,179.824559 483.220669,177.090569 484.030692,175.06551 L476.436238,175.06551 C466.310946,175.06551 460.134357,177.596995 457.906469,182.659965 C455.88141,186.30507 455.830865,189.342657 457.754832,191.772727 C459.6788,194.202797 462.463336,195.417832 466.108441,195.417832 C475.221527,195.012821 480.588093,190.962704 482.20814,183.267483 Z" id="o50" fill="#2879C2"></path>
        </g>
    </g>
</svg>