<svg xmlns="http://www.w3.org/2000/svg" width="16" height="16" viewBox="0 0 16 16">
  <g id="Group_3" data-name="Group 3" transform="translate(-77 -103)">
    <g id="Rectangle_4" data-name="Rectangle 4" transform="translate(77 107)" fill="#fff" stroke="#707070" stroke-width="1">
      <rect width="16" height="12" stroke="none"/>
      <rect x="0.5" y="0.5" width="15" height="11" fill="none"/>
    </g>
    <g id="Subtraction_1" data-name="Subtraction 1" transform="translate(80 103)" fill="#fff">
      <path d="M 9.5 4.5 L 0.5000001788139343 4.5 C 0.5002465844154358 2.294334888458252 2.518841505050659 0.5 5 0.5 C 7.48115873336792 0.5 9.499752998352051 2.294334888458252 9.5 4.5 Z" stroke="none"/>
      <path d="M 8.959243774414062 4 C 8.680956840515137 2.306048154830933 7.011488437652588 1 5 1 C 2.988511562347412 1 1.319043040275574 2.306048154830933 1.040755748748779 4 L 8.959243774414062 4 M 9.969479560852051 5 L 0.03054999932646751 5 C 0.00989999994635582 4.831630229949951 0 4.663859844207764 0 4.500440120697021 C 0 2.018889904022217 2.242990016937256 0 5 0 C 7.756999969482422 0 10 2.018889904022217 10 4.500440120697021 C 10 4.666369915008545 9.98976993560791 4.834149837493896 9.969579696655273 4.999100208282471 L 9.969479560852051 5 Z" stroke="none" fill="#707070"/>
    </g>
    <path id="Path_2" data-name="Path 2" d="M0,2.23S-.049.026,2.862,0,5.732,2.23,5.732,2.23" transform="translate(87.866 112.04) rotate(-180)" fill="none" stroke="#707070" stroke-width="1"/>
  </g>
</svg>
