<svg xmlns="http://www.w3.org/2000/svg" width="16" height="16" viewBox="0 0 16 16">
  <g id="Group_3" data-name="Group 3" transform="translate(-32 -27)">
    <g id="Rectangle_3" data-name="Rectangle 3" transform="translate(32 31)" fill="none" stroke="#000" stroke-width="2">
      <rect width="16" height="12" stroke="none"/>
      <rect x="1" y="1" width="14" height="10" fill="none"/>
    </g>
    <g id="Subtraction_2" data-name="Subtraction 2" transform="translate(33.5 27)" fill="none">
      <path d="M13,6H0A6.745,6.745,0,0,1,6.5,0,6.745,6.745,0,0,1,13,6Z" stroke="none"/>
      <path d="M 10.59981346130371 4.25 C 9.741727828979492 2.743690252304077 8.204604148864746 1.75 6.499990463256836 1.75 C 4.795006275177002 1.75 3.257984638214111 2.743563175201416 2.400052309036255 4.25 L 10.59981346130371 4.25 M 13 6 L 4.76837158203125e-07 6 C 0.4584604799747467 2.57846999168396 3.253650426864624 -4.440892098500626e-16 6.499990463256836 -4.440892098500626e-16 C 9.746050834655762 -4.440892098500626e-16 12.5403003692627 2.57846999168396 12.99974060058594 5.997700214385986 L 13 6 Z" stroke="none" fill="#000"/>
    </g>
  </g>
</svg>
