<svg xmlns="http://www.w3.org/2000/svg" width="87.161" height="87.255" viewBox="0 0 87.161 87.255">
  <g id="Group_5" data-name="Group 5" transform="translate(0 0)">
    <circle id="Ellipse_7" data-name="Ellipse 7" cx="37" cy="37" r="37" transform="translate(6.725 6.474)" fill="#d9a786"/>
    <path id="Subtraction_3" data-name="Subtraction 3" d="M40.2,74.323h0L29.952,64.173V49.825L49.033,35.066V22.5H29.953V.709A37.509,37.509,0,0,1,37.222,0,36.923,36.923,0,0,1,52.7,3.363V15.555l8.085,12.76h12.58a37.427,37.427,0,0,1-1.38,22.22l-6.6-7.516-5.5,23.724A37.017,37.017,0,0,1,40.2,74.323ZM.822,45.035v0A37.464,37.464,0,0,1,0,37.22a37.073,37.073,0,0,1,6.018-20.3l2,2.795L9.48,35.066.824,45.033Z" transform="translate(6.36 6.466)" fill="#7c1f1f"/>
    <path id="Subtraction_4" data-name="Subtraction 4" d="M40.2,74.323h0L29.952,64.173V49.825L49.033,35.066V22.5H29.953V.709A37.509,37.509,0,0,1,37.222,0,36.923,36.923,0,0,1,52.7,3.363V15.555l8.085,12.76h12.58a37.427,37.427,0,0,1-1.38,22.22l-6.6-7.516-5.5,23.724A37.017,37.017,0,0,1,40.2,74.323ZM.822,45.035v0A37.464,37.464,0,0,1,0,37.22a37.073,37.073,0,0,1,6.018-20.3l2,2.795L9.48,35.066.824,45.033Z" transform="translate(14.204 87.255) rotate(-101)" fill="#291374"/>
  </g>
</svg>
