<?xml version="1.0" encoding="UTF-8"?>
<svg width="600px" height="350px" viewBox="0 0 600 350" version="1.1" xmlns="http://www.w3.org/2000/svg" xmlns:xlink="http://www.w3.org/1999/xlink">
    <!-- Generator: Sketch 47.1 (45422) - http://www.bohemiancoding.com/sketch -->
    <title>visa</title>
    <desc>Created with Sketch.</desc>
    <defs></defs>
    <g id="Page-1" stroke="none" stroke-width="1" fill="none" fill-rule="evenodd">
        <g id="visa" fill-rule="nonzero">
            <path d="M390.563,138.439 C382.229667,134.689 373.583667,132.918 364.625,133.126 C358.166333,133.126 353.218333,134.324 349.781,136.72 C346.343667,139.116 344.625,141.824333 344.625,144.845 C344.625,147.865667 346.135333,150.574 349.156,152.97 C352.176667,155.366 357.228667,158.334667 364.312,161.876 C384.104,170.834667 393.895667,183.022333 393.687,198.439 C393.687,212.605667 388.166,223.907667 377.124,232.345 C366.082,240.782333 351.290333,245.001 332.749,245.001 C317.332333,244.792333 304.311333,242.396333 293.686,237.813 L298.374,207.188 L302.749,209.688 C314.624333,214.48 325.666,216.876 335.874,216.876 C341.499333,216.876 346.395333,215.678 350.562,213.282 C354.728667,210.886 356.916333,207.500667 357.125,203.126 C357.125,200.209333 355.770667,197.553 353.062,195.157 C350.353333,192.761 345.457333,189.792333 338.374,186.251 C334.415333,184.167667 330.925667,182.188333 327.905,180.313 C324.884333,178.437667 321.707333,175.989667 318.374,172.969 C315.040667,169.948333 312.436333,166.406667 310.561,162.344 C308.685667,158.281333 307.748,153.958333 307.748,149.375 C307.956667,136.249667 313.633667,125.572667 324.779,117.344 C335.924333,109.115333 350.143,105.000667 367.435,105 C378.477,105 388.893667,106.771 398.685,110.313 L394.31,140.001 L390.563,138.439 Z M189,243.126 L152.125,243.126 L123.375,135.001 C133.375,138.959667 142.489667,145.001333 150.719,153.126 C158.948333,161.250667 164.833667,170.105 168.375,179.689 C168.793,180.522333 169.002,180.939 169.002,180.939 L173.065,199.689 L207.128,107.501 L244.316,107.501 L189,243.126 Z M293.688,107.501 L271.813,243.126 L236.813,243.126 L258.688,107.501 L293.688,107.501 Z M516.813,243.126 L484,243.126 C482.333333,232.500667 481.083333,225.729667 480.25,222.813 L435.25,222.5 L428.062,243.125 L390.874,243.125 L443.062,118.437 C446.187333,111.145 452.333333,107.499 461.5,107.499 L488.375,107.499 L516.813,243.126 Z M464.313,143.751 C463.687667,145.417667 462.958333,147.344667 462.125,149.532 C461.291667,151.719333 460.614667,153.542333 460.094,155.001 C459.573333,156.459667 459.417,157.084667 459.625,156.876 C452.125,176.876 447.437333,189.584333 445.562,195.001 L474,195.001 L466.5,155.626 L464.313,143.751 Z" id="o100" fill="#2366B2"></path>
            <path d="M168.377301,179.689968 C155.460282,144.063664 127.334515,120.833697 84,110.000068 L84.3130085,107.5 L140.877551,107.5 C149.627789,107.5 154.940601,111.146099 156.815985,118.438298 L169.004318,180.940002 C166.225353,173.717139 166.016347,173.300461 168.377301,179.689968 Z" id="o50" fill="#F9A532"></path>
        </g>
    </g>
</svg>